# xmcd
#
# Track frame offsets:
#	150
#	18108
#	35876
#	51877
#	64576
#	81827
#	97618
#	114453
#	128557
#	146179
#	170006
#	189709
#	206626
#	224271
#	245589
#	264617
#	280029
#	298080
#
# Disc length: 4213 seconds
#
# Revision: 0
# Processed by: cddbd v1.5.2PL0 Copyright (c) Steve Scherf et al.
# Submitted via: EasyCDDAExtractor 10.0.3.1
#
DISCID=10107312
DTITLE=Various Artist - HC 2009 - 38
DYEAR=2009
DGENRE=Country
TTITLE0=Jason Aldean - The Truth
TTITLE1=New Relics - Beautiful  ( Radio Edit )
TTITLE2=Amanda Henkel - Break My Stride
TTITLE3=Heartland - Mustache  ( Single Version )
TTITLE4=Tim  Mcgraw - Southern Voice  ( Radio Edit )
TTITLE5=Gloriana - How Far Do You Wanna Go?  ( Radio Edit )
TTITLE6=Jimmy Wayne  Feat. Daryl Hall and  John Oates - Sara Smile
TTITLE7=Rosanne Cash  Feat.  Bruce Springsteen - Sea Of Heartbreak
TTITLE8=Alicia Keys - Don't Mean Anything   ( Radio Edit )
TTITLE9=Joe - Can't Get Over You
TTITLE10=Barbra Sreisand - Smoke Gets In Your Eyes
TTITLE11=Gregorie Howard - Black Bart   ( Radio Edit )
TTITLE12=Elan Trotman - 100 Degrees   ( Radio Edit )
TTITLE13=Joe Mcbride - Crazy   (Album Version )
TTITLE14=Joyce Cooling - Grass Roots
TTITLE15=Sax Pack - Can't Help Myself
TTITLE16=Tim Bowman - High Def
TTITLE17=Cindy Bradley - Bloom
EXTD=
EXTT0=
EXTT1=
EXTT2=
EXTT3=
EXTT4=
EXTT5=
EXTT6=
EXTT7=
EXTT8=
EXTT9=
EXTT10=
EXTT11=
EXTT12=
EXTT13=
EXTT14=
EXTT15=
EXTT16=
EXTT17=
PLAYORDER=
